<svg width="486" height="612" viewBox="0 0 486 612" fill="none" xmlns="http://www.w3.org/2000/svg">
<path opacity="0.4" d="M26.1736 584.827L0 569.87L39.1623 547.483L65.3236 562.428L26.1736 584.827Z" fill="#D6D8E5"/>
<path d="M26.7126 554.68L5.03613 542.183L26.7126 529.686L48.3769 542.183L26.7126 554.68Z" fill="#D6D8E5"/>
<path d="M26.7126 579.674L5.03613 567.177V542.183L26.7126 554.68V579.674Z" fill="#B1B6C4"/>
<path d="M48.3894 567.177L26.7129 579.674V554.68L48.3894 542.183V567.177Z" fill="#C4C7D6"/>
<path d="M55.8393 559.368C57.7137 559.889 59.7186 559.647 61.4147 558.695C62.7626 558.695 70.0657 555.623 71.0582 558.242C71.9282 560.531 68.7668 562.66 67.0758 563.064C63.3997 563.958 60.6549 565.794 59.1723 566.112C58.6076 566.314 58.0019 566.376 57.4081 566.29C56.8143 566.205 56.2505 565.976 55.7658 565.623C54.712 564.521 54.81 560.678 55.8393 559.368Z" fill="#574735"/>
<path d="M59.1723 565.415C60.655 565.096 63.3875 563.26 67.0758 562.367C68.485 562.024 70.9234 560.482 71.1685 558.634C71.4994 560.751 68.6443 562.624 67.0758 563.003C63.3998 563.897 60.655 565.733 59.1723 566.051C58.6076 566.253 58.0019 566.314 57.4081 566.229C56.8144 566.144 56.2505 565.914 55.7658 565.561C55.5322 565.314 55.3675 565.011 55.2879 564.68C55.8331 565.097 56.4684 565.38 57.1429 565.508C57.8174 565.635 58.5124 565.603 59.1723 565.415Z" fill="#F8982C"/>
<path d="M42.679 552.306C44.5534 552.827 46.5583 552.585 48.2544 551.632C49.6023 551.632 56.8318 548.56 57.8857 551.179C58.7557 553.468 55.5942 555.598 53.9155 556.002C50.2394 556.895 47.4946 558.731 46.012 559.05C45.4473 559.252 44.8416 559.313 44.2478 559.228C43.654 559.142 43.0902 558.913 42.6055 558.56C41.5517 557.52 41.662 553.676 42.679 552.306Z" fill="#574735"/>
<path d="M46.0119 558.413C47.4946 558.095 50.2272 556.259 53.9155 555.366C55.3246 555.023 57.7631 553.481 58.0082 551.632C58.339 553.75 55.4839 555.623 53.9155 556.002C50.2394 556.895 47.4946 558.731 46.0119 559.05C45.4472 559.252 44.8416 559.313 44.2478 559.228C43.654 559.142 43.0902 558.913 42.6055 558.56C42.3746 558.316 42.2101 558.017 42.1276 557.691C42.6747 558.104 43.3104 558.384 43.9845 558.509C44.6587 558.635 45.3527 558.602 46.0119 558.413Z" fill="#F8982C"/>
<path d="M22.1788 543.236C27.8767 545.684 33.207 546.124 37.6305 543.774L42.1644 541.155C42.4339 547.006 42.6913 552.624 42.6913 552.624C42.6913 552.624 46.1713 555.255 48.818 552.905C48.818 552.905 49.3817 544.704 49.9576 536.626L54.712 533.884C54.5974 534.316 54.5357 534.76 54.5282 535.206C54.5282 536.736 55.631 559.539 55.631 559.539C55.631 559.539 59.1355 561.62 61.8435 559.282C61.8435 559.282 63.6693 532.856 64.0859 528.682C64.5516 523.933 59.2826 521.595 55.9373 522.807L50.8399 524.704L51.0849 521.767C51.5628 517.018 46.2815 514.68 42.9486 515.892C39.9097 517.005 19.3728 524.692 19.3728 524.692C19.5005 526.667 19.7419 528.632 20.0957 530.58L11.9839 529.894C11.555 537.471 16.4932 540.739 22.1788 543.236ZM36.3439 530.102L41.7722 526.981C41.6818 527.363 41.6244 527.752 41.6007 528.144L36.3439 530.102Z" fill="#F8982C"/>
<path d="M7.59715 506.736C7.59715 506.736 8.25884 516.81 9.58223 518.266C10.9056 519.723 15.3904 520.714 15.3904 520.714L18.8337 526.32C18.8337 526.32 15.6845 508.352 14.9983 507.96C14.3121 507.568 7.59715 506.736 7.59715 506.736Z" fill="#FFCEA9"/>
<path d="M14.2263 495.536C13.3913 495.147 12.4427 495.075 11.5585 495.334C10.6742 495.593 9.91491 496.166 9.42288 496.944C8.19752 499.037 6.83738 506.246 6.71484 507.47C7.22415 508.157 7.89883 508.705 8.67637 509.062C9.45391 509.42 10.3092 509.575 11.1629 509.514L14.2263 495.536Z" fill="#EDEDED"/>
<path d="M15.4394 495.72C17.1794 495.806 18.4783 496.246 18.6988 495.72C18.8856 494.823 19.0166 493.916 19.0909 493.003C18.8949 492.489 18.7233 491.95 18.7233 491.95C16.5299 490.604 15.8437 488.278 15.5497 485.487C15.0595 480.775 17.6083 476.662 22.3136 476.173C26.7494 475.708 30.0088 478.817 30.8911 483.088C31.3567 485.194 32.288 489.208 31.0259 492.648C30.3274 494.582 29.4207 496.124 28.5752 496.418C27.6973 496.399 26.8215 496.326 25.9529 496.197C25.9529 496.197 25.7201 497.507 25.5608 498.339C25.4015 499.172 25.4505 499.625 27.1293 500.653C28.808 501.681 24.605 503.798 21.8602 503.59C19.1154 503.382 16.0276 501.73 15.1821 499.918C14.165 497.935 14.2385 495.61 15.4394 495.72Z" fill="#FFCEA9"/>
<path d="M59.6257 526.504C59.6247 526.752 59.5585 526.996 59.4338 527.21C59.3091 527.425 59.1302 527.603 58.915 527.728L45.6199 535.39C45.4042 535.516 45.1589 535.582 44.9092 535.582C44.6594 535.582 44.4141 535.516 44.1985 535.39L25.5731 524.643C25.3561 524.521 25.1758 524.343 25.0509 524.128C24.9259 523.913 24.8608 523.668 24.8624 523.419V523.321L59.6257 526.504Z" fill="#E5E5E5"/>
<path d="M58.9149 527.728L45.6198 535.39C45.4057 535.52 45.1596 535.588 44.9091 535.586V526.504H59.6134C59.6136 526.751 59.5493 526.994 59.4268 527.208C59.3044 527.423 59.1279 527.602 58.9149 527.728Z" fill="#E5E5E5"/>
<path d="M45.4115 534.692C45.2615 534.782 45.09 534.829 44.9153 534.829C44.7405 534.829 44.569 534.782 44.419 534.692L25.0462 523.529C24.8011 523.382 24.8011 523.15 25.0462 523.015L39.3093 514.778L59.6256 526.504L45.4115 534.692Z" fill="#F4F4F4"/>
<path d="M32.9987 526.504L33.0968 526.553L39.3093 530.139L42.7158 528.168L42.8138 528.119L36.5033 524.484L32.9987 526.504Z" fill="#BFBFBF"/>
<path d="M33.0968 526.553L39.3093 530.139L42.7158 528.168L36.5033 524.594L33.0968 526.553Z" fill="#E5E5E5"/>
<path d="M54.3567 527.079L55.2512 527.593C55.2944 527.617 55.3428 527.629 55.3921 527.629C55.4413 527.629 55.4898 527.617 55.533 527.593L56.3908 527.103C56.4765 527.103 56.4888 526.981 56.3908 526.944L55.4962 526.418C55.4522 526.397 55.404 526.386 55.3553 526.386C55.3066 526.386 55.2585 526.397 55.2144 526.418L54.3567 526.92C54.2954 526.969 54.2831 527.042 54.3567 527.079Z" fill="#3A2C6D"/>
<path d="M53.0945 526.32L53.989 526.834C54.0322 526.858 54.0807 526.87 54.1299 526.87C54.1792 526.87 54.2276 526.858 54.2708 526.834L55.1286 526.344C55.2144 526.344 55.2144 526.222 55.1286 526.185L54.2341 525.671C54.1908 525.648 54.1424 525.635 54.0932 525.635C54.0439 525.635 53.9955 525.648 53.9522 525.671L53.0945 526.161C53.0332 526.234 53.021 526.32 53.0945 526.32Z" fill="#3A2C6D"/>
<path d="M51.8201 525.622L52.7146 526.136C52.7608 526.157 52.8109 526.168 52.8617 526.168C52.9124 526.168 52.9625 526.157 53.0087 526.136L53.8542 525.647C53.94 525.647 53.9522 525.524 53.8542 525.475L52.9597 524.961C52.9165 524.938 52.868 524.925 52.8188 524.925C52.7695 524.925 52.7211 524.938 52.6779 524.961L51.8201 525.451C51.7588 525.5 51.7466 525.573 51.8201 525.622Z" fill="#3A2C6D"/>
<path d="M50.558 524.888L51.4525 525.402C51.4966 525.423 51.5447 525.433 51.5935 525.433C51.6422 525.433 51.6903 525.423 51.7344 525.402L52.5921 524.912C52.6779 524.912 52.6902 524.79 52.5921 524.741L51.6976 524.227C51.6514 524.206 51.6013 524.195 51.5506 524.195C51.4998 524.195 51.4497 524.206 51.4035 524.227L50.558 524.717C50.4968 524.766 50.4845 524.839 50.558 524.888Z" fill="#3A2C6D"/>
<path d="M49.2837 524.153L50.1904 524.668C50.2336 524.691 50.2821 524.703 50.3313 524.703C50.3806 524.703 50.429 524.691 50.4723 524.668L51.3178 524.178C51.4035 524.178 51.4158 524.056 51.3178 524.019L50.4232 523.493C50.3792 523.472 50.331 523.461 50.2823 523.461C50.2336 523.461 50.1855 523.472 50.1414 523.493L49.2837 523.994C49.2224 524.043 49.2101 524.117 49.2837 524.153Z" fill="#3A2C6D"/>
<path d="M48.0216 523.419L48.9161 523.945C48.9602 523.966 49.0083 523.977 49.057 523.977C49.1057 523.977 49.1539 523.966 49.1979 523.945L50.0557 523.444C50.1415 523.444 50.1537 523.321 50.0557 523.284L49.1612 522.77C49.1158 522.747 49.0653 522.734 49.0141 522.734C48.9629 522.734 48.9125 522.747 48.8671 522.77L48.0216 523.26C47.9603 523.309 47.9481 523.382 48.0216 523.419Z" fill="#3A2C6D"/>
<path d="M46.7595 522.648L47.654 523.162C47.6981 523.183 47.7462 523.194 47.7949 523.194C47.8436 523.194 47.8917 523.183 47.9358 523.162L48.7936 522.672C48.8793 522.672 48.8793 522.55 48.7936 522.501L47.8991 521.987C47.855 521.966 47.8069 521.956 47.7581 521.956C47.7094 521.956 47.6613 521.966 47.6172 521.987L46.7595 522.477C46.686 522.575 46.686 522.648 46.7595 522.648Z" fill="#3A2C6D"/>
<path d="M45.485 521.963L46.3795 522.477C46.4228 522.5 46.4712 522.512 46.5205 522.512C46.5697 522.512 46.6182 522.5 46.6614 522.477L47.5191 521.987C47.6049 521.987 47.6172 521.865 47.5191 521.828L46.6246 521.302C46.5805 521.281 46.5324 521.27 46.4837 521.27C46.435 521.27 46.3869 521.281 46.3428 521.302L45.485 521.803C45.4238 521.852 45.4115 521.926 45.485 521.963Z" fill="#3A2C6D"/>
<path d="M44.223 521.228L45.1175 521.742C45.1607 521.766 45.2092 521.778 45.2584 521.778C45.3077 521.778 45.3561 521.766 45.3993 521.742L46.2571 521.253C46.3429 521.253 46.3429 521.13 46.2571 521.093L45.3381 520.567C45.2948 520.544 45.2464 520.531 45.1972 520.531C45.1479 520.531 45.0995 520.544 45.0562 520.567L44.1985 521.057C44.1127 521.118 44.1127 521.191 44.223 521.228Z" fill="#3A2C6D"/>
<path d="M42.9486 520.506L43.8431 521.02C43.8892 521.041 43.9394 521.052 43.9901 521.052C44.0408 521.052 44.091 521.041 44.1372 521.02L44.9826 520.53C45.0684 520.53 45.0807 520.408 44.9826 520.359L44.1126 519.833C44.0694 519.809 44.021 519.797 43.9717 519.797C43.9225 519.797 43.874 519.809 43.8308 519.833L42.9731 520.322C42.8873 520.384 42.8873 520.457 42.9486 520.506Z" fill="#3A2C6D"/>
<path d="M41.662 519.772L42.5565 520.286C42.6005 520.306 42.6487 520.317 42.6974 520.317C42.7461 520.317 42.7942 520.306 42.8383 520.286L43.696 519.796C43.7818 519.796 43.7941 519.674 43.696 519.625L42.8873 519.098C42.8411 519.077 42.791 519.067 42.7403 519.067C42.6895 519.067 42.6394 519.077 42.5932 519.098L41.7477 519.588C41.662 519.649 41.662 519.723 41.662 519.772Z" fill="#3A2C6D"/>
<path d="M40.4366 519.037L41.3434 519.551C41.3866 519.575 41.435 519.587 41.4843 519.587C41.5335 519.587 41.582 519.575 41.6252 519.551L42.483 519.062C42.5565 519.062 42.5687 518.939 42.483 518.903L41.5884 518.376C41.5444 518.356 41.4962 518.345 41.4475 518.345C41.3988 518.345 41.3507 518.356 41.3066 518.376L40.4489 518.878C40.3508 518.976 40.3508 518.976 40.4366 519.037Z" fill="#3A2C6D"/>
<path d="M39.2113 518.303L40.1058 518.829C40.1499 518.85 40.198 518.861 40.2467 518.861C40.2954 518.861 40.3436 518.85 40.3876 518.829L41.2454 518.327C41.3312 518.327 41.3434 518.205 41.2454 518.168L40.3509 517.654C40.3055 517.63 40.255 517.618 40.2038 517.618C40.1526 517.618 40.1022 517.63 40.0568 517.654L39.2113 518.144C39.0888 518.193 39.0765 518.266 39.2113 518.303Z" fill="#3A2C6D"/>
<path d="M37.2752 517.226L38.7824 518.095C38.8264 518.115 38.8746 518.126 38.9233 518.126C38.972 518.126 39.0201 518.115 39.0642 518.095L39.9219 517.605C40.0077 517.605 40.0077 517.483 39.9219 517.434L38.427 516.528C38.3829 516.507 38.3348 516.496 38.2861 516.496C38.2374 516.496 38.1892 516.507 38.1452 516.528L37.2874 517.03C37.2745 517.029 37.2616 517.031 37.2494 517.035C37.2372 517.039 37.226 517.046 37.2163 517.054C37.2066 517.063 37.1987 517.073 37.1931 517.085C37.1874 517.096 37.1841 517.109 37.1833 517.122C37.1825 517.134 37.1842 517.147 37.1884 517.16C37.1926 517.172 37.1991 517.183 37.2076 517.193C37.2162 517.202 37.2265 517.21 37.2381 517.216C37.2497 517.222 37.2623 517.225 37.2752 517.226Z" fill="#3A2C6D"/>
<path d="M51.2442 526.699L52.151 527.214C52.1942 527.237 52.2427 527.249 52.2919 527.249C52.3412 527.249 52.3896 527.237 52.4328 527.214L53.2906 526.724C53.3641 526.724 53.3764 526.602 53.2906 526.565L52.3961 526.051C52.3528 526.027 52.3044 526.015 52.2552 526.015C52.2059 526.015 52.1575 526.027 52.1142 526.051L51.2565 526.54C51.183 526.589 51.183 526.663 51.2442 526.699Z" fill="#3A2C6D"/>
<path d="M49.9821 525.965L50.8766 526.491C50.9207 526.512 50.9688 526.523 51.0175 526.523C51.0662 526.523 51.1143 526.512 51.1584 526.491L52.0162 525.989C52.1019 525.989 52.1142 525.867 52.0162 525.83L51.1217 525.316C51.0762 525.293 51.0258 525.28 50.9746 525.28C50.9234 525.28 50.873 525.293 50.8276 525.316L49.9821 525.806C49.9208 525.855 49.9086 525.928 49.9821 525.965Z" fill="#3A2C6D"/>
<path d="M48.7077 525.243L49.6022 525.757C49.6484 525.778 49.6985 525.789 49.7492 525.789C49.8 525.789 49.8501 525.778 49.8963 525.757L50.7418 525.267C50.8276 525.267 50.8398 525.145 50.7418 525.096L49.8473 524.582C49.8032 524.561 49.7551 524.55 49.7064 524.55C49.6576 524.55 49.6095 524.561 49.5654 524.582L48.7077 525.072C48.6464 525.096 48.6342 525.194 48.7077 525.243Z" fill="#3A2C6D"/>
<path d="M47.4457 524.508L48.3402 525.022C48.3843 525.043 48.4324 525.054 48.4811 525.054C48.5298 525.054 48.578 525.043 48.622 525.022L49.4798 524.533C49.5656 524.533 49.5656 524.411 49.4798 524.362L48.5853 523.847C48.5412 523.827 48.4931 523.816 48.4444 523.816C48.3956 523.816 48.3475 523.827 48.3034 523.847L47.4457 524.337C47.3722 524.386 47.3722 524.459 47.4457 524.508Z" fill="#3A2C6D"/>
<path d="M46.1836 523.774L47.0781 524.3C47.1222 524.321 47.1703 524.332 47.219 524.332C47.2677 524.332 47.3158 524.321 47.3599 524.3L48.2177 523.799C48.3034 523.799 48.3157 523.676 48.2177 523.639L47.3232 523.125C47.2777 523.102 47.2273 523.089 47.1761 523.089C47.1249 523.089 47.0745 523.102 47.0291 523.125L46.1836 523.615C46.1223 523.664 46.11 523.737 46.1836 523.774Z" fill="#3A2C6D"/>
<path d="M44.9092 523.052L45.8037 523.566C45.8499 523.587 45.9 523.598 45.9508 523.598C46.0015 523.598 46.0516 523.587 46.0978 523.566L46.9433 523.076C47.0291 523.076 47.0413 522.954 46.9433 522.905L46.0488 522.391C46.0047 522.37 45.9566 522.359 45.9079 522.359C45.8591 522.359 45.811 522.37 45.7669 522.391L44.9092 522.881C44.8479 522.93 44.8357 523.003 44.9092 523.052Z" fill="#3A2C6D"/>
<path d="M43.6471 522.318L44.5416 522.832C44.5857 522.852 44.6338 522.863 44.6825 522.863C44.7312 522.863 44.7793 522.852 44.8234 522.832L45.6812 522.342C45.7669 522.342 45.7669 522.22 45.6812 522.171L44.7867 521.657C44.7426 521.636 44.6945 521.625 44.6457 521.625C44.597 521.625 44.5489 521.636 44.5048 521.657L43.6471 522.146C43.5736 522.195 43.5736 522.269 43.6471 522.318Z" fill="#3A2C6D"/>
<path d="M42.3726 521.583L43.2672 522.097C43.3104 522.121 43.3588 522.133 43.4081 522.133C43.4573 522.133 43.5058 522.121 43.549 522.097L44.4067 521.608C44.4925 521.608 44.5048 521.485 44.4067 521.448L43.5122 520.922C43.466 520.901 43.4159 520.89 43.3652 520.89C43.3145 520.89 43.2643 520.901 43.2181 520.922L42.3726 521.424C42.3114 521.424 42.2991 521.546 42.3726 521.583Z" fill="#3A2C6D"/>
<path d="M41.0983 520.849L42.0051 521.363C42.0483 521.386 42.0968 521.399 42.146 521.399C42.1953 521.399 42.2437 521.386 42.2869 521.363L43.1447 520.873C43.2182 520.873 43.2305 520.751 43.1447 520.714L42.2502 520.2C42.207 520.176 42.1585 520.164 42.1093 520.164C42.06 520.164 42.0116 520.176 41.9683 520.2L41.1106 520.69C41.0371 520.739 41.0371 520.812 41.0983 520.849Z" fill="#3A2C6D"/>
<path d="M39.8362 520.114L40.7307 520.641C40.7748 520.661 40.8229 520.672 40.8716 520.672C40.9203 520.672 40.9685 520.661 41.0125 520.641L41.8703 520.139C41.956 520.139 41.9683 520.016 41.8703 519.98L40.9758 519.466C40.9304 519.442 40.8799 519.43 40.8287 519.43C40.7775 519.43 40.7271 519.442 40.6817 519.466L39.8362 519.955C39.7749 520.004 39.7627 520.078 39.8362 520.114Z" fill="#3A2C6D"/>
<path d="M38.5618 519.392L39.4563 519.906C39.5025 519.927 39.5526 519.938 39.6034 519.938C39.6541 519.938 39.7042 519.927 39.7504 519.906L40.5959 519.417C40.6817 519.417 40.6939 519.294 40.5959 519.245L39.7014 518.731C39.6573 518.71 39.6092 518.7 39.5605 518.7C39.5118 518.7 39.4636 518.71 39.4196 518.731L38.5618 519.221C38.5006 519.27 38.4883 519.343 38.5618 519.392Z" fill="#3A2C6D"/>
<path d="M37.2997 518.658L38.1942 519.172C38.2383 519.193 38.2864 519.203 38.3351 519.203C38.3838 519.203 38.432 519.193 38.476 519.172L39.3338 518.682C39.4196 518.682 39.4196 518.56 39.3338 518.511L38.4393 517.997C38.3952 517.976 38.3471 517.965 38.2984 517.965C38.2496 517.965 38.2015 517.976 38.1574 517.997L37.2997 518.486C37.2262 518.535 37.2262 518.609 37.2997 518.658Z" fill="#3A2C6D"/>
<path d="M52.5186 527.434L54.0258 528.303C54.0699 528.324 54.118 528.334 54.1667 528.334C54.2155 528.334 54.2636 528.324 54.3077 528.303L55.1654 527.813C55.2512 527.813 55.2634 527.691 55.1654 527.642L53.6582 526.773C53.612 526.752 53.5619 526.741 53.5112 526.741C53.4604 526.741 53.4103 526.752 53.3641 526.773L52.5186 527.275C52.4574 527.324 52.4451 527.397 52.5186 527.434Z" fill="#3A2C6D"/>
<path d="M37.1895 517.262L38.084 517.776C38.1575 517.776 38.1575 517.887 38.084 517.936L37.1772 518.45C37.1385 518.474 37.094 518.486 37.0486 518.486C37.0031 518.486 36.9586 518.474 36.9199 518.45H36.8464C36.8082 518.431 36.7663 518.422 36.7238 518.422C36.6814 518.422 36.6395 518.431 36.6013 518.45L35.6455 519C35.6029 519.019 35.5571 519.028 35.5107 519.028C35.4644 519.028 35.4186 519.019 35.3759 519L34.8123 518.67C34.7388 518.67 34.7388 518.56 34.8123 518.511L35.7068 517.997L35.8906 517.899L36.0254 517.813L36.1602 517.74L36.9199 517.299C36.9575 517.27 37.0023 517.251 37.0497 517.244C37.0971 517.238 37.1453 517.244 37.1895 517.262Z" fill="#3A2C6D"/>
<path d="M49.4429 529.906L50.3374 530.42C50.3807 530.444 50.4291 530.456 50.4784 530.456C50.5276 530.456 50.5761 530.444 50.6193 530.42L51.477 529.931C51.5628 529.931 51.5628 529.808 51.477 529.772L50.5825 529.258C50.5393 529.234 50.4908 529.222 50.4416 529.222C50.3924 529.222 50.3439 529.234 50.3007 529.258L49.4429 529.747C49.3817 529.796 49.3694 529.87 49.4429 529.906Z" fill="#3A2C6D"/>
<path d="M48.1808 529.184L49.0753 529.698C49.1194 529.719 49.1675 529.73 49.2162 529.73C49.265 529.73 49.3131 529.719 49.3571 529.698L50.2149 529.209C50.3007 529.209 50.3007 529.086 50.2149 529.037L49.3204 528.523C49.2763 528.502 49.2282 528.492 49.1795 528.492C49.1308 528.492 49.0826 528.502 49.0386 528.523L48.1808 529.013C48.1073 529.062 48.1073 529.135 48.1808 529.184Z" fill="#3A2C6D"/>
<path d="M46.9065 528.45L47.8132 528.964C47.8564 528.987 47.9049 529 47.9541 529C48.0034 529 48.0518 528.987 48.0951 528.964L48.9528 528.474C49.0263 528.474 49.0386 528.352 48.9528 528.315L48.0583 527.801C48.0151 527.777 47.9666 527.765 47.9174 527.765C47.8681 527.765 47.8197 527.777 47.7765 527.801L46.9187 528.303C46.8452 528.34 46.8452 528.413 46.9065 528.45Z" fill="#3A2C6D"/>
<path d="M36.1478 522.244L37.0423 522.758C37.0877 522.782 37.1382 522.794 37.1894 522.794C37.2406 522.794 37.291 522.782 37.3364 522.758L38.1819 522.269C38.2677 522.269 38.2799 522.146 38.1819 522.109L37.2874 521.583C37.2433 521.562 37.1952 521.552 37.1465 521.552C37.0978 521.552 37.0496 521.562 37.0056 521.583L36.1478 522.085C36.0866 522.134 36.0743 522.207 36.1478 522.244Z" fill="#3A2C6D"/>
<path d="M34.8858 521.522L35.7803 522.036C35.8244 522.057 35.8725 522.067 35.9212 522.067C35.9699 522.067 36.018 522.057 36.0621 522.036L36.9198 521.534C37.0056 521.534 37.0179 521.424 36.9198 521.375L36.0253 520.861C35.9799 520.837 35.9295 520.825 35.8783 520.825C35.8271 520.825 35.7767 520.837 35.7313 520.861L34.8858 521.35C34.8245 521.424 34.8122 521.424 34.8858 521.522Z" fill="#3A2C6D"/>
<path d="M33.6237 520.787L34.5182 521.302C34.5614 521.325 34.6099 521.337 34.6591 521.337C34.7084 521.337 34.7568 521.325 34.8 521.302L35.6578 520.812C35.7436 520.812 35.7558 520.69 35.6578 520.653L34.7633 520.127C34.7171 520.106 34.667 520.095 34.6162 520.095C34.5655 520.095 34.5154 520.106 34.4692 520.127L33.6237 520.628C33.5624 520.677 33.5502 520.751 33.6237 520.787Z" fill="#3A2C6D"/>
<path d="M32.3616 520.053L33.2561 520.579C33.3001 520.6 33.3483 520.611 33.397 520.611C33.4457 520.611 33.4938 520.6 33.5379 520.579L34.3956 520.078C34.4814 520.078 34.4814 519.955 34.3956 519.918L33.4889 519.404C33.4457 519.381 33.3972 519.368 33.348 519.368C33.2987 519.368 33.2503 519.381 33.2071 519.404L32.3493 519.894C32.3003 519.943 32.288 520.016 32.3616 520.053Z" fill="#3A2C6D"/>
<path d="M45.338 527.544L46.5634 528.254C46.6096 528.275 46.6597 528.286 46.7104 528.286C46.7611 528.286 46.8113 528.275 46.8575 528.254L47.703 527.764C47.7887 527.764 47.801 527.642 47.703 527.593L46.4776 526.895C46.4344 526.872 46.3859 526.859 46.3367 526.859C46.2874 526.859 46.239 526.872 46.1958 526.895L45.338 527.385C45.2645 527.422 45.2522 527.544 45.338 527.544Z" fill="#3A2C6D"/>
<path d="M37.41 522.978L38.6353 523.676C38.6786 523.7 38.727 523.712 38.7763 523.712C38.8255 523.712 38.874 523.7 38.9172 523.676L39.7749 523.187C39.8607 523.187 39.873 523.064 39.7749 523.015L38.5496 522.318C38.5055 522.297 38.4574 522.286 38.4087 522.286C38.3599 522.286 38.3118 522.297 38.2677 522.318L37.41 522.807C37.3487 522.856 37.3365 522.929 37.41 522.978Z" fill="#3A2C6D"/>
<path d="M39.0029 523.872L44.9581 527.311C45.0022 527.332 45.0503 527.343 45.099 527.343C45.1478 527.343 45.1959 527.332 45.24 527.311L46.0977 526.822C46.1835 526.822 46.1835 526.699 46.0977 526.65L40.1547 523.223C40.1093 523.2 40.0589 523.187 40.0077 523.187C39.9565 523.187 39.9061 523.2 39.8606 523.223L39.0152 523.713C38.9416 523.774 38.9294 523.872 39.0029 523.872Z" fill="#3A2C6D"/>
<path d="M49.6757 527.213L50.5703 527.728C50.6135 527.751 50.6619 527.763 50.7112 527.763C50.7604 527.763 50.8089 527.751 50.8521 527.728L51.7098 527.238C51.7956 527.238 51.8079 527.116 51.7098 527.067L50.8153 526.553C50.7691 526.532 50.719 526.521 50.6683 526.521C50.6176 526.521 50.5674 526.532 50.5212 526.553L49.6757 527.042C49.6145 527.091 49.6022 527.165 49.6757 527.213Z" fill="#3A2C6D"/>
<path d="M48.4137 526.479L49.3082 526.993C49.3514 527.017 49.3999 527.029 49.4491 527.029C49.4983 527.029 49.5468 527.017 49.59 526.993L50.4478 526.504C50.5335 526.504 50.5335 526.381 50.4478 526.344L49.5533 525.83C49.51 525.807 49.4616 525.794 49.4123 525.794C49.3631 525.794 49.3146 525.807 49.2714 525.83L48.4137 526.32C48.3524 526.32 48.3402 526.442 48.4137 526.479Z" fill="#3A2C6D"/>
<path d="M47.1393 525.757L48.046 526.271C48.0901 526.292 48.1382 526.303 48.187 526.303C48.2357 526.303 48.2838 526.292 48.3279 526.271L49.1856 525.781C49.2591 525.781 49.2714 525.659 49.1856 525.61L48.2911 525.096C48.247 525.075 48.1989 525.064 48.1502 525.064C48.1015 525.064 48.0534 525.075 48.0093 525.096L47.1515 525.586C47.078 525.635 47.078 525.708 47.1393 525.757Z" fill="#3A2C6D"/>
<path d="M45.8772 525.023L46.7717 525.537C46.815 525.56 46.8634 525.573 46.9127 525.573C46.9619 525.573 47.0104 525.56 47.0536 525.537L47.9113 525.047C47.9971 525.047 48.0093 524.925 47.9113 524.876L47.0168 524.362C46.9727 524.341 46.9246 524.33 46.8759 524.33C46.8272 524.33 46.7791 524.341 46.735 524.362L45.8772 524.863C45.816 524.912 45.8037 524.986 45.8772 525.023Z" fill="#3A2C6D"/>
<path d="M44.615 524.288L45.5096 524.802C45.5528 524.826 45.6012 524.838 45.6505 524.838C45.6997 524.838 45.7482 524.826 45.7914 524.802L46.6491 524.3C46.7349 524.3 46.7472 524.178 46.6491 524.141L45.7546 523.627C45.7092 523.604 45.6588 523.591 45.6076 523.591C45.5564 523.591 45.5059 523.604 45.4605 523.627L44.615 524.117C44.5538 524.178 44.5415 524.251 44.615 524.288Z" fill="#3A2C6D"/>
<path d="M43.3529 523.566L44.2474 524.08C44.2915 524.101 44.3396 524.112 44.3884 524.112C44.4371 524.112 44.4852 524.101 44.5293 524.08L45.387 523.59C45.4605 523.59 45.4728 523.468 45.387 523.419L44.4925 522.905C44.4484 522.884 44.4003 522.874 44.3516 522.874C44.3029 522.874 44.2548 522.884 44.2107 522.905L43.3529 523.395C43.2794 523.444 43.2794 523.517 43.3529 523.566Z" fill="#3A2C6D"/>
<path d="M42.0786 522.832L42.9731 523.346C43.0185 523.369 43.069 523.382 43.1202 523.382C43.1713 523.382 43.2218 523.369 43.2672 523.346L44.1127 522.856C44.1985 522.856 44.2107 522.734 44.1127 522.697L43.2182 522.171C43.1741 522.15 43.126 522.139 43.0773 522.139C43.0285 522.139 42.9804 522.15 42.9364 522.171L42.0786 522.672C42.0173 522.721 42.0051 522.795 42.0786 522.832Z" fill="#3A2C6D"/>
<path d="M40.8165 522.097L41.662 522.648C41.7061 522.669 41.7542 522.679 41.8029 522.679C41.8516 522.679 41.8998 522.669 41.9438 522.648L42.8016 522.146C42.8874 522.146 42.8996 522.024 42.8016 521.987L41.9071 521.473C41.8617 521.449 41.8112 521.437 41.76 521.437C41.7088 521.437 41.6584 521.449 41.613 521.473L40.7675 521.963C40.7552 521.987 40.743 522.06 40.8165 522.097Z" fill="#3A2C6D"/>
<path d="M39.5543 521.424L40.4488 521.938C40.4929 521.959 40.541 521.97 40.5897 521.97C40.6385 521.97 40.6866 521.959 40.7307 521.938L41.5884 521.448C41.6742 521.448 41.6742 521.326 41.5884 521.277L40.6939 520.763C40.6498 520.742 40.6017 520.732 40.553 520.732C40.5043 520.732 40.4561 520.742 40.4121 520.763L39.5543 521.253C39.4808 521.253 39.4808 521.326 39.5543 521.424Z" fill="#3A2C6D"/>
<path d="M38.28 520.641L39.1745 521.155C39.2199 521.178 39.2703 521.191 39.3215 521.191C39.3727 521.191 39.4232 521.178 39.4686 521.155L40.3141 520.665C40.3999 520.665 40.4121 520.543 40.3141 520.506L39.4196 519.98C39.3755 519.959 39.3274 519.948 39.2787 519.948C39.2299 519.948 39.1818 519.959 39.1377 519.98L38.28 520.482C38.2187 520.53 38.2065 520.604 38.28 520.641Z" fill="#3A2C6D"/>
<path d="M37.0179 519.906L37.9124 520.433C37.9565 520.453 38.0046 520.464 38.0534 520.464C38.1021 520.464 38.1502 520.453 38.1943 520.433L39.052 519.931C39.1378 519.931 39.1501 519.808 39.052 519.772L38.1575 519.258C38.1121 519.234 38.0617 519.222 38.0105 519.222C37.9593 519.222 37.9088 519.234 37.8634 519.258L37.0179 519.747C36.9567 519.796 36.9444 519.87 37.0179 519.906Z" fill="#3A2C6D"/>
<path d="M35.7558 519.184L36.6503 519.698C36.6944 519.719 36.7425 519.73 36.7912 519.73C36.84 519.73 36.8881 519.719 36.9321 519.698L37.7899 519.209C37.8757 519.209 37.8757 519.086 37.7899 519.037L36.8954 518.523C36.8513 518.502 36.8032 518.492 36.7545 518.492C36.7058 518.492 36.6576 518.502 36.6136 518.523L35.7558 519.013C35.6823 519.062 35.6823 519.135 35.7558 519.184Z" fill="#3A2C6D"/>
<path d="M50.9379 527.948L52.8005 529.013C52.8445 529.033 52.8927 529.044 52.9414 529.044C52.9901 529.044 53.0382 529.033 53.0823 529.013L53.9278 528.523C54.0136 528.523 54.0258 528.401 53.9278 528.352L52.0775 527.287C52.0343 527.263 51.9858 527.251 51.9366 527.251C51.8873 527.251 51.8389 527.263 51.7957 527.287L50.9379 527.777C50.8767 527.825 50.8644 527.899 50.9379 527.948Z" fill="#3A2C6D"/>
<path d="M49.0754 528.278L49.9699 528.805C50.014 528.825 50.0621 528.836 50.1108 528.836C50.1595 528.836 50.2077 528.825 50.2517 528.805L51.1095 528.303C51.1953 528.303 51.2075 528.18 51.1095 528.144L50.215 527.63C50.1718 527.606 50.1233 527.594 50.0741 527.594C50.0248 527.594 49.9764 527.606 49.9331 527.63L49.0754 528.119C49.0141 528.168 49.0141 528.242 49.0754 528.278Z" fill="#3A2C6D"/>
<path d="M47.7887 527.544L48.6832 528.058C48.7273 528.079 48.7754 528.09 48.8242 528.09C48.8729 528.09 48.921 528.079 48.9651 528.058L49.8228 527.568C49.9086 527.568 49.9208 527.446 49.8228 527.397L48.916 526.883C48.872 526.862 48.8239 526.852 48.7751 526.852C48.7264 526.852 48.6783 526.862 48.6342 526.883L47.7887 527.373C47.7887 527.434 47.7887 527.544 47.7887 527.544Z" fill="#3A2C6D"/>
<path d="M46.5634 526.822L47.4579 527.336C47.5012 527.359 47.5496 527.372 47.5989 527.372C47.6481 527.372 47.6966 527.359 47.7398 527.336L48.5975 526.846C48.671 526.846 48.6833 526.724 48.5975 526.687L47.703 526.161C47.6589 526.14 47.6108 526.129 47.5621 526.129C47.5134 526.129 47.4653 526.14 47.4212 526.161L46.5634 526.663C46.4777 526.712 46.4777 526.785 46.5634 526.822Z" fill="#3A2C6D"/>
<path d="M45.3381 526.087L46.2326 526.614C46.2787 526.635 46.3289 526.646 46.3796 526.646C46.4303 526.646 46.4805 526.635 46.5266 526.614L47.3721 526.112C47.4579 526.112 47.4702 525.989 47.3721 525.953L46.4776 525.439C46.4344 525.415 46.386 525.403 46.3367 525.403C46.2875 525.403 46.239 525.415 46.1958 525.439L45.3381 525.928C45.2155 525.977 45.2033 526.051 45.3381 526.087Z" fill="#3A2C6D"/>
<path d="M44.0147 525.365L44.9092 525.879C44.9533 525.9 45.0014 525.911 45.0501 525.911C45.0988 525.911 45.147 525.9 45.191 525.879L46.0488 525.39C46.1346 525.39 46.1468 525.267 46.0488 525.218L45.1543 524.704C45.1081 524.683 45.058 524.672 45.0072 524.672C44.9565 524.672 44.9064 524.683 44.8602 524.704L44.0147 525.194C43.9534 525.243 43.9412 525.316 44.0147 525.365Z" fill="#3A2C6D"/>
<path d="M42.7526 524.631L43.6471 525.145C43.6903 525.168 43.7387 525.181 43.788 525.181C43.8372 525.181 43.8857 525.168 43.9289 525.145L44.7866 524.655C44.8724 524.655 44.8724 524.533 44.7866 524.496L43.8921 523.982C43.8489 523.959 43.8005 523.946 43.7512 523.946C43.702 523.946 43.6535 523.959 43.6103 523.982L42.7526 524.472C42.679 524.521 42.679 524.594 42.7526 524.631Z" fill="#3A2C6D"/>
<path d="M41.4781 523.872L42.3727 524.386C42.4188 524.407 42.469 524.418 42.5197 524.418C42.5704 524.418 42.6206 524.407 42.6667 524.386L43.5122 523.896C43.598 523.896 43.6103 523.774 43.5122 523.725L42.6177 523.211C42.5745 523.187 42.526 523.175 42.4768 523.175C42.4276 523.175 42.3791 523.187 42.3359 523.211L41.4781 523.701C41.4169 523.786 41.4046 523.872 41.4781 523.872Z" fill="#3A2C6D"/>
<path d="M40.2161 523.174L41.1106 523.688C41.1538 523.712 41.2023 523.724 41.2515 523.724C41.3007 523.724 41.3492 523.712 41.3924 523.688L42.2502 523.199C42.3359 523.199 42.3482 523.076 42.2502 523.027L41.3557 522.513C41.3095 522.492 41.2593 522.482 41.2086 522.482C41.1579 522.482 41.1077 522.492 41.0616 522.513L40.2161 523.015C40.1548 523.052 40.1425 523.125 40.2161 523.174Z" fill="#3A2C6D"/>
<path d="M38.9539 522.44L39.8484 522.954C39.8923 522.976 39.9405 522.987 39.9894 522.987C40.0382 522.987 40.0864 522.976 40.1303 522.954L40.988 522.452C41.0738 522.452 41.0738 522.33 40.988 522.293L40.0813 521.779C40.038 521.755 39.9896 521.743 39.9403 521.743C39.8911 521.743 39.8426 521.755 39.7994 521.779L38.9417 522.269C38.8927 522.33 38.8804 522.403 38.9539 522.44Z" fill="#3A2C6D"/>
<path d="M37.6918 521.718L38.5863 522.232C38.6304 522.253 38.6785 522.263 38.7272 522.263C38.7759 522.263 38.824 522.253 38.8681 522.232L39.7259 521.742C39.7994 521.742 39.8116 521.62 39.7259 521.571L38.8313 521.057C38.7873 521.036 38.7392 521.025 38.6904 521.025C38.6417 521.025 38.5936 521.036 38.5495 521.057L37.6918 521.546C37.6182 521.595 37.6182 521.669 37.6918 521.718Z" fill="#3A2C6D"/>
<path d="M36.4174 520.983L37.312 521.497C37.3574 521.521 37.4078 521.533 37.459 521.533C37.5102 521.533 37.5606 521.521 37.606 521.497L38.4515 521.008C38.5373 521.008 38.5496 520.885 38.4515 520.849L37.557 520.322C37.5129 520.302 37.4648 520.291 37.4161 520.291C37.3674 520.291 37.3193 520.302 37.2752 520.322L36.4174 520.824C36.3562 520.873 36.3439 520.947 36.4174 520.983Z" fill="#3A2C6D"/>
<path d="M33.5869 519.355L36.0376 520.775C36.0817 520.796 36.1298 520.807 36.1785 520.807C36.2272 520.807 36.2753 520.796 36.3194 520.775L37.1772 520.273C37.2629 520.273 37.2752 520.151 37.1772 520.114L34.7265 518.694C34.681 518.671 34.6306 518.659 34.5794 518.659C34.5282 518.659 34.4778 518.671 34.4324 518.694L33.5869 519.184C33.5256 519.233 33.5134 519.306 33.5869 519.355Z" fill="#3A2C6D"/>
<path d="M50.3375 529.013L51.5628 529.723C51.6069 529.743 51.655 529.754 51.7037 529.754C51.7525 529.754 51.8006 529.743 51.8447 529.723L52.7024 529.221C52.7882 529.221 52.8004 529.098 52.7024 529.062L51.477 528.352C51.433 528.331 51.3848 528.32 51.3361 528.32C51.2874 528.32 51.2393 528.331 51.1952 528.352L50.3375 528.854C50.2394 528.903 50.2394 528.976 50.3375 529.013Z" fill="#3A2C6D"/>
<path d="M59.6257 526.504L39.3093 514.778V498.866L39.4686 498.498L39.6279 498.425C39.8413 498.299 40.0846 498.233 40.3325 498.233C40.5803 498.233 40.8237 498.299 41.037 498.425L59.6257 509.135C59.8378 509.262 60.0136 509.441 60.136 509.655C60.2584 509.87 60.3232 510.112 60.3241 510.359V525.341C60.1893 526.063 60.0423 526.247 59.6257 526.504Z" fill="#E5E5E5"/>
<path d="M57.7631 511.032L39.3093 499.392V498.866L39.4686 498.498L39.6279 498.425C39.8413 498.299 40.0846 498.233 40.3325 498.233C40.5803 498.233 40.8237 498.299 41.037 498.425L59.6257 509.135C59.8543 509.265 60.0381 509.461 60.1526 509.698L57.7631 511.032Z" fill="#E5E5E5"/>
<path d="M39.7749 498.462L59.2826 509.71C59.3852 509.771 59.4706 509.857 59.5307 509.959C59.5907 510.062 59.6234 510.179 59.6257 510.298V526.504L39.3093 514.778V498.731C39.3079 498.676 39.3213 498.622 39.3482 498.574C39.3751 498.526 39.4144 498.486 39.4621 498.458C39.5097 498.431 39.5639 498.416 39.619 498.417C39.674 498.418 39.7279 498.433 39.7749 498.462Z" fill="#DCEEFF"/>
<path d="M39.7749 498.462L59.2826 509.71C59.3852 509.771 59.4706 509.857 59.5307 509.959C59.5907 510.062 59.6234 510.179 59.6257 510.298V526.504L39.3093 514.778V498.731C39.3079 498.676 39.3213 498.622 39.3482 498.574C39.3751 498.526 39.4144 498.486 39.4621 498.458C39.5097 498.431 39.5639 498.416 39.619 498.417C39.674 498.418 39.7279 498.433 39.7749 498.462Z" fill="#F4F4F4"/>
<path d="M59.6257 526.504V525.916L39.3093 514.202V514.778L59.6257 526.504Z" fill="#DBDBDB"/>
<path d="M39.8362 513.933V499.306L40.0813 499.441V513.811L39.8362 513.933Z" fill="#1E3779"/>
<path d="M40.0812 499.441V513.811L58.9762 524.668V510.335L40.0812 499.441Z" fill="#3A2C6D"/>
<path d="M39.8362 513.933L58.9763 524.961V524.668L40.0813 513.811L39.8362 513.933Z" fill="#031F60"/>
<path d="M17.9636 495.928C17.4735 497.152 18.7111 498.596 21.9828 499.6C25.2545 500.604 25.5485 499.306 25.5485 499.306C27.7307 500.283 29.8578 501.378 31.9204 502.587C33.881 503.957 34.751 507.936 35.0205 514.643C35.3269 522.403 35.3514 533.909 35.0941 535.904C35.0941 535.904 31.418 539.576 26.7249 539.172C22.0318 538.768 14.1037 534.631 12.1922 531.424C12.1922 524.619 13.0377 523.505 11.9349 519.588C9.41063 510.616 8.075 506.944 9.31261 500.971C10.3174 496.075 11.7633 495.451 13.6871 495.5C15.1192 495.567 16.5466 495.71 17.9636 495.928Z" fill="#F4F4F4"/>
<path d="M42.7525 522.978C38.8926 523.958 37.9858 521.522 37.4834 519.515C36.2581 514.619 35.5964 510.237 34.6774 507.47C33.5991 504.215 32.4717 503.688 30.8788 503.052C29.0285 502.305 27.4233 503.884 28.036 508.033C28.8001 512.852 29.9851 517.595 31.5772 522.207C32.1408 524.284 33.2295 526.18 34.7386 527.715C36.736 529.331 39.7381 529.258 44.2719 528.131C46.931 527.227 49.5126 526.109 51.9916 524.79C52.9719 524.337 53.7316 524.031 55.6677 523.15C57.5856 522.313 59.2687 521.018 60.5691 519.38C61.5494 517.948 61.6842 517.275 61.4881 516.932C61.2921 516.589 60.7774 516.614 60.2628 517.213C59.5022 518.226 58.5639 519.093 57.4935 519.772C57.4935 519.772 58.7188 518.548 59.3683 517.703C59.9634 516.957 60.4539 516.133 60.8264 515.255C61.1818 514.423 60.4588 513.297 59.9074 513.884C59.356 514.472 59.1109 515.108 58.1061 516.332C57.5814 516.97 56.9806 517.541 56.3171 518.033C56.9389 517.198 57.4921 516.314 57.9714 515.39C58.4013 514.648 58.6096 513.798 58.5718 512.942C58.5718 512.513 57.9223 511.999 57.3464 512.819C56.7497 513.988 56.0087 515.078 55.1408 516.063C54.2585 516.981 53.5111 517.507 53.4866 517.287C53.4621 517.067 54.0257 516.528 54.3321 515.475C54.6384 514.423 54.3321 513.284 53.7439 513.162C53.1557 513.04 53.266 513.064 52.8004 514.068C52.1463 515.089 51.5609 516.152 51.0481 517.25C50.7458 518.275 50.1992 519.212 49.4552 519.98C48.5239 520.947 46.4285 522.06 42.7525 522.978Z" fill="#FFCEA9"/>
<path d="M29.4084 502.391C31.9817 502.011 33.8074 503.174 34.947 507.066C36.0866 510.959 36.8708 514.166 36.8708 514.166C35.8537 515.637 34.3097 516.663 32.5576 517.03C29.4819 517.776 28.3669 516.308 28.3669 516.308C28.3669 516.308 27.5091 512.219 26.9822 509.441C26.4553 506.663 26.2715 502.856 29.4084 502.391Z" fill="#EDEDED"/>
<path d="M30.7318 482.427C30.7318 482.427 34.8 476.246 25.9774 474.985C19.6178 474.08 15.5251 478.156 15.0595 482.586C14.6061 486.821 17.2161 491.216 19.0909 492.966C20.9433 493.437 22.905 493.201 24.5928 492.305C24.6979 491.149 24.7388 489.989 24.7153 488.829C24.7153 488.829 21.6151 482.317 30.7318 482.427Z" fill="#73512A"/>
<path d="M48.3891 560.653V542.085L33.6235 550.69L39.3092 562.428L48.3891 560.653Z" fill="#C4C7D6"/>
<path d="M38.709 543.15L44.3701 539.87L48.377 542.183L42.5076 545.512L38.709 543.15Z" fill="#D6D8E5"/>
<path opacity="0.4" d="M272.151 459L202.404 418.779C197.368 415.878 198.005 410.811 203.813 407.457L249.004 381.398L336.972 432.17L291.794 458.229C285.973 461.583 277.187 461.938 272.151 459Z" fill="#D6D8E5"/>
<path d="M277.249 456.05L207.489 415.817C202.465 412.916 203.102 407.861 208.898 404.508L254.089 378.449L342.058 429.171L296.867 455.242C291.058 458.584 282.273 459 277.249 456.05Z" fill="#B1B4C4"/>
<path d="M342.057 429.171V426.515L338.001 428.853L342.057 429.171Z" fill="#B1B4C4"/>
<path d="M204.095 411.031V408.326L208.274 410.052L204.095 411.031Z" fill="#B1B4C4"/>
<path d="M277.249 453.394L207.489 413.161C202.465 410.26 203.102 405.193 208.898 401.851L254.089 375.768L342.058 426.503L296.867 452.562C291.058 455.928 282.273 456.283 277.249 453.394Z" fill="#D6D8E5"/>
<path d="M254.334 375.903L243.441 339.819L332.365 390.774L342.057 426.515L254.334 375.903Z" fill="#9EA1AF"/>
<path d="M339.484 427.996L342.058 426.515L338.198 423.504L339.484 427.996Z" fill="#9EA1AF"/>
<path d="M251.528 377.261L240.635 341.178L329.559 392.133L339.484 427.996L251.528 377.261Z" fill="#B1B4C4"/>
<path d="M477.263 488.804L133.049 290.296C128.221 287.505 124.312 280.039 124.312 273.613V7.65C124.312 1.224 128.221 -1.73808 133.049 1.05264L477.263 199.512C482.091 202.29 486 209.757 486 216.195V482.256C486 488.633 482.091 491.595 477.263 488.804Z" fill="#C4C7D6"/>
<path d="M479.028 491.546L482.851 489.355L481.197 478.058L479.028 491.546Z" fill="#C4C7D6"/>
<path d="M123.687 2.68055L127.437 0.526306L132.828 3.59855C132.828 3.59855 127.081 4.46759 126.946 4.43087C126.812 4.39415 123.687 2.68055 123.687 2.68055Z" fill="#B1B4C4"/>
<path d="M474.102 490.628L129.888 292.12C125.06 289.329 121.139 281.863 121.139 275.437V9.4738C121.139 3.03556 125.06 0.0857171 129.888 2.8642L474.09 201.373C478.918 204.163 482.839 211.63 482.839 218.068V484.019C482.851 490.457 478.93 493.407 474.102 490.628Z" fill="#E4E7F2"/>
<path d="M473.501 490.971L129.287 292.463C124.459 289.672 120.55 282.205 120.55 275.779V9.79203C120.55 3.36603 124.459 0.403954 129.287 3.19467L473.501 201.727C478.329 204.506 482.238 211.972 482.238 218.411V484.374C482.238 490.824 478.329 493.762 473.501 490.971Z" fill="#201D38"/>
<path opacity="0.3" d="M477.508 474.802L124.913 271.459L125.096 10.8814C125.096 8.21305 126.971 7.13593 129.287 8.43337L473.501 206.978C474.721 207.772 475.737 208.841 476.465 210.1C477.193 211.36 477.614 212.773 477.692 214.224L477.508 474.802Z" fill="url(#paint0_linear)"/>
<path d="M434.474 242.523L343.332 189.904V181.482L434.474 234.102V242.523Z" fill="#A298E2"/>
<path d="M371.074 300.21L343.332 284.201V275.792L371.074 291.789V300.21Z" fill="#C33AFC"/>
<path d="M353.551 263.16L343.332 257.26V248.839L353.551 254.739V263.16Z" fill="#4D3BFF"/>
<path d="M221.397 176.427L192.197 159.585V151.164L221.397 168.006V176.427Z" fill="#C33AFC"/>
<path d="M284.184 239.586L192.197 186.538V178.116L284.184 231.165V239.586Z" fill="#F4CE2C"/>
<path d="M359.776 213.062L343.332 203.38V194.959L359.776 204.641V213.062Z" fill="#4D3BFF"/>
<path d="M400.017 330.517L343.332 297.677V289.256L400.017 322.096V330.517Z" fill="#4D3BFF"/>
<path d="M349.998 355.78L343.332 351.57V343.148L349.998 347.359V355.78Z" fill="#A298E2"/>
<path d="M273.965 179.793L192.197 132.645V124.224L273.965 171.372V179.793Z" fill="#FF8657"/>
<path d="M219.939 215.999L192.197 200.002V191.581L219.939 207.578V215.999Z" fill="#FF8657"/>
<path d="M338.957 295.155L315.59 281.679V273.258L338.957 286.734V295.155Z" fill="#A298E2"/>
<path d="M338.957 254.739L315.59 241.263V232.841L338.957 246.318V254.739Z" fill="#A298E2"/>
<path d="M187.822 210.956L164.455 197.48V189.059L187.822 202.535V210.956Z" fill="#A298E2"/>
<path d="M338.957 200.846L315.59 187.382V178.961L338.957 192.425V200.846Z" fill="#A298E2"/>
<path d="M338.957 281.679L315.59 268.215V259.794L338.957 273.258V281.679Z" fill="#A298E2"/>
<path d="M338.957 308.632L315.59 295.155V286.734L338.957 300.21V308.632Z" fill="#A298E2"/>
<path d="M187.822 157.064L164.455 143.587V135.166L187.822 148.643V157.064Z" fill="#A298E2"/>
<path d="M187.822 224.42L164.455 210.944V202.535L187.822 215.999V224.42Z" fill="#A298E2"/>
<path d="M338.957 214.322L315.59 200.846V192.425L338.957 205.901V214.322Z" fill="#A298E2"/>
<path d="M338.957 335.572L315.59 322.096V313.674L338.957 327.151V335.572Z" fill="#A298E2"/>
<path d="M187.822 89.707L164.455 76.2307V67.8096L187.822 81.2859V89.707Z" fill="#A298E2"/>
<path d="M187.822 143.587L164.455 130.123V121.702L187.822 135.166V143.587Z" fill="#A298E2"/>
<path d="M187.822 251.373L164.455 237.897V229.476L187.822 242.952V251.373Z" fill="#A298E2"/>
<path d="M416.498 272.413L343.332 230.32V221.899L416.498 264.005V272.413Z" fill="#FF8657"/>
<path d="M435.319 323.785L343.332 270.737V262.315L435.319 315.364V323.785Z" fill="#A298E2"/>
<path d="M385.938 349.048L343.332 324.617V316.208L385.938 340.627V349.048Z" fill="#4D3BFF"/>
<path d="M257.9 157.064L192.197 119.169V110.747L257.9 148.643V157.064Z" fill="#F4CE2C"/>
<path d="M269.578 217.688L192.197 173.061V164.64L269.578 209.267V217.688Z" fill="#4D3BFF"/>
<path d="M202.416 232.842L192.197 226.954V218.533L202.416 224.42V232.842Z" fill="#C33AFC"/>
<path d="M211.178 264.837L192.197 253.894V245.473L211.178 256.416V264.837Z" fill="#F4CE2C"/>
<path d="M338.957 241.263L315.59 227.786V219.365L338.957 232.842V241.263Z" fill="#A298E2"/>
<path d="M338.957 349.048L315.59 335.572V327.151L338.957 340.627V349.048Z" fill="#A298E2"/>
<path d="M187.822 116.647L164.455 103.171V94.7499L187.822 108.226V116.647Z" fill="#A298E2"/>
<path d="M187.822 197.48L164.455 184.004V175.583L187.822 189.059V197.48Z" fill="#A298E2"/>
<path d="M187.822 264.837L164.455 251.373V242.952L187.822 256.416V264.837Z" fill="#A298E2"/>
<path d="M371.074 232.842L343.332 216.844V208.423L371.074 224.42V232.842Z" fill="#4D3BFF"/>
<path d="M379.921 332.206L343.332 311.153V302.732L379.921 323.785V332.206Z" fill="#C33AFC"/>
<path d="M396.721 368.497L343.332 338.093V329.672L396.721 360.076V368.497Z" fill="#FF8657"/>
<path d="M249.139 178.961L192.197 146.121V137.7L249.139 170.54V178.961Z" fill="#A298E2"/>
<path d="M241.836 134.334L192.197 105.705V97.2835L241.836 125.913V134.334Z" fill="#4D3BFF"/>
<path d="M273.965 260.626L192.197 213.478V205.057L273.965 252.217V260.626Z" fill="#A298E2"/>
<path d="M241.836 296L192.197 267.371V258.949L241.836 287.579V296Z" fill="#FF8657"/>
<path d="M338.957 187.382L315.59 173.906V165.485L338.957 178.961V187.382Z" fill="#A298E2"/>
<path d="M338.957 268.215L315.59 254.739V246.318L338.957 259.794V268.215Z" fill="#A298E2"/>
<path d="M338.957 362.512L315.59 349.048V340.627L338.957 354.091V362.512Z" fill="#A298E2"/>
<path d="M187.822 130.123L164.455 116.647V108.226L187.822 121.702V130.123Z" fill="#A298E2"/>
<path d="M187.822 170.54L164.455 157.064V148.643L187.822 162.119V170.54Z" fill="#A298E2"/>
<path d="M187.822 237.897L164.455 224.42V215.999L187.822 229.476V237.897Z" fill="#A298E2"/>
<path d="M392.971 205.081L343.332 176.427V168.006L392.971 196.66V205.081Z" fill="#F4CE2C"/>
<path d="M422.171 290.1L343.332 243.796V235.375L422.171 281.679V290.1Z" fill="#C33AFC"/>
<path d="M373.954 382.659L343.332 365.046V356.625L373.954 374.238V382.659Z" fill="#F4CE2C"/>
<path d="M291.487 149.487L192.197 92.2284V83.8073L291.487 141.066V149.487Z" fill="#C33AFC"/>
<path d="M271.036 326.306L192.197 280.835V272.413L271.036 317.885V326.306Z" fill="#A298E2"/>
<path d="M291.487 297.677L192.197 240.418V231.997L291.487 289.256V297.677Z" fill="#4D3BFF"/>
<path opacity="0.4" d="M367.3 612C395.615 612 418.569 598.76 418.569 582.428C418.569 566.096 395.615 552.856 367.3 552.856C338.985 552.856 316.031 566.096 316.031 582.428C316.031 598.76 338.985 612 367.3 612Z" fill="#D6D8E5"/>
<path d="M423.605 578.23V499.392L321.276 501.962L321.496 574.668C319.585 583.42 324.437 592.563 336.09 599.283C356.113 610.825 388.572 610.837 408.595 599.283C418.655 593.444 423.654 585.831 423.605 578.23Z" fill="#A6CE28"/>
<path d="M372.336 528.927C400.651 528.927 423.605 515.687 423.605 499.355C423.605 483.023 400.651 469.783 372.336 469.783C344.021 469.783 321.067 483.023 321.067 499.355C321.067 515.687 344.021 528.927 372.336 528.927Z" fill="#BCD64D"/>
<path d="M415.505 499.392C415.505 504.202 411.498 509.257 404.538 513.284C396.941 517.642 386.562 520.335 375.632 520.775C374.542 520.775 373.451 520.849 372.348 520.849C360.217 520.849 348.491 518.082 340.146 513.284C333.186 509.257 329.179 504.202 329.179 499.392C329.179 494.582 333.186 489.527 340.146 485.5C348.491 480.689 360.217 477.923 372.336 477.923C373.439 477.923 374.542 477.923 375.632 477.996C386.562 478.437 396.941 481.13 404.538 485.5C411.498 489.49 415.505 494.496 415.505 499.392Z" fill="#28221C"/>
<path opacity="0.07" d="M415.505 499.392C415.505 504.202 411.498 509.257 404.538 513.284C396.941 517.642 386.562 520.335 375.632 520.775C364.702 520.335 354.311 517.642 346.726 513.284C339.754 509.184 335.747 504.166 335.747 499.392C335.747 494.618 339.742 489.527 346.702 485.5C354.299 481.13 364.69 478.437 375.62 477.996C386.55 478.437 396.929 481.13 404.526 485.5C411.498 489.49 415.505 494.496 415.505 499.392Z" fill="white"/>
<path d="M416.106 535.879L405.225 529.588L399.931 532.648L405.225 535.708V537.715L415.432 543.591L415.126 545.476C416.608 546.7 421.889 556.492 421.889 556.492L422.257 556.149V581.522C422.257 588.181 418.348 585.929 416.682 584.962L405.225 578.352L399.931 581.4L405.225 584.448V586.455L416.682 593.065C417.839 593.758 419.073 594.317 420.358 594.729L419.672 597.912L425.602 594.57H425.688H425.774C428.225 593.126 429.266 589.613 429.266 585.672V559.05C429.315 547.801 420.676 538.976 416.106 535.879Z" fill="#8DA01F"/>
<path d="M411.388 596.161L399.931 589.552V581.4L411.388 588.01C413.055 588.964 416.964 591.229 416.964 584.558V558.058C416.964 551.791 411.29 547.458 410.322 546.773L399.931 540.775V532.648L410.812 538.939C415.395 542.036 423.973 550.873 423.973 562.122V588.646C423.973 595.806 420.701 601.523 411.388 596.161Z" fill="#99B524"/>
<path opacity="0.4" d="M50.6931 455.34C70.1901 455.34 85.9955 446.221 85.9955 434.973C85.9955 423.724 70.1901 414.605 50.6931 414.605C31.1961 414.605 15.3906 423.724 15.3906 434.973C15.3906 446.221 31.1961 455.34 50.6931 455.34Z" fill="#D6D8E5"/>
<path d="M55.7292 451.57C75.2262 451.57 91.0317 442.452 91.0317 431.203C91.0317 419.954 75.2262 410.836 55.7292 410.836C36.2322 410.836 20.4268 419.954 20.4268 431.203C20.4268 442.452 36.2322 451.57 55.7292 451.57Z" fill="#D6D8E5"/>
<path d="M8.46729 361.582L20.8189 432.611H90.9459L102.991 362.096L8.46729 361.582Z" fill="#D6D8E5"/>
<path d="M55.7289 387.983C81.858 387.983 103.04 375.768 103.04 360.701C103.04 345.633 81.858 333.418 55.7289 333.418C29.5998 333.418 8.41797 345.633 8.41797 360.701C8.41797 375.768 29.5998 387.983 55.7289 387.983Z" fill="#E4E6EF"/>
<path d="M55.729 381.961C44.1371 381.961 33.3295 379.415 25.2912 374.777C18.3924 370.811 14.4468 365.67 14.4468 360.701C14.4468 355.731 18.3924 350.59 25.2912 346.625C33.3172 341.986 44.1371 339.44 55.729 339.44C67.3208 339.44 78.1407 341.986 86.1668 346.625C93.0655 350.59 97.0111 355.731 97.0111 360.701C97.0111 365.67 93.1268 370.872 86.1668 374.777C78.1407 379.44 67.3943 381.961 55.729 381.961Z" fill="#28221C"/>
<path d="M76.0823 339.207C76.7519 330.028 75.2887 320.819 71.807 312.299C68.3253 303.778 62.9193 296.177 56.011 290.088L55.8762 289.953V290.21C48.9615 296.3 43.5507 303.905 40.0666 312.43C36.5826 320.956 35.1198 330.17 35.7927 339.354L8.72461 336.747C20.1449 379.721 56.011 376.025 56.011 376.025V375.939C58.7191 376.147 92.1712 377.873 103.114 336.649L76.0823 339.207Z" fill="#99B524"/>
<path d="M56.0108 376.025C56.0108 376.025 53.5601 342.561 8.61409 320.027C8.57733 320.027 -2.03424 375.621 56.0108 376.025Z" fill="#A6CE28"/>
<path d="M55.729 376.025C55.729 376.025 58.1797 342.561 103.126 320.027C103.126 320.027 113.774 375.621 55.729 376.025Z" fill="#A6CE28"/>
<defs>
<linearGradient id="paint0_linear" x1="124.913" y1="241.348" x2="477.692" y2="241.348" gradientUnits="userSpaceOnUse">
<stop offset="0.21" stop-color="white" stop-opacity="0"/>
<stop offset="1" stop-color="white" stop-opacity="0.2"/>
</linearGradient>
</defs>
</svg>
